<?xml version="1.0" encoding="UTF-8" standalone="no"?>
<!-- Created with Inkscape (http://www.inkscape.org/) -->

<svg
   xmlns:dc="http://purl.org/dc/elements/1.1/"
   xmlns:cc="http://creativecommons.org/ns#"
   xmlns:rdf="http://www.w3.org/1999/02/22-rdf-syntax-ns#"
   xmlns:svg="http://www.w3.org/2000/svg"
   xmlns="http://www.w3.org/2000/svg"
   xmlns:sodipodi="http://sodipodi.sourceforge.net/DTD/sodipodi-0.dtd"
   xmlns:inkscape="http://www.inkscape.org/namespaces/inkscape"
   width="200mm"
   height="200mm"
   viewBox="0 0 708.66142 708.66142"
   id="svg2"
   version="1.1"
   inkscape:version="0.91 r13725"
   sodipodi:docname="soprano_logo.svg">
  <defs
     id="defs4" />
  <sodipodi:namedview
     id="base"
     pagecolor="#ffffff"
     bordercolor="#666666"
     borderopacity="1.0"
     inkscape:pageopacity="0.0"
     inkscape:pageshadow="2"
     inkscape:zoom="0.7"
     inkscape:cx="321.07237"
     inkscape:cy="638.16298"
     inkscape:document-units="px"
     inkscape:current-layer="layer1"
     showgrid="false"
     inkscape:object-paths="true"
     inkscape:snap-bbox="true"
     inkscape:bbox-paths="true"
     inkscape:bbox-nodes="true"
     inkscape:snap-bbox-edge-midpoints="true"
     inkscape:snap-bbox-midpoints="true"
     inkscape:snap-intersection-paths="true"
     inkscape:object-nodes="true"
     inkscape:snap-smooth-nodes="true"
     inkscape:snap-midpoints="true"
     inkscape:window-width="1920"
     inkscape:window-height="1056"
     inkscape:window-x="0"
     inkscape:window-y="24"
     inkscape:window-maximized="1" />
  <metadata
     id="metadata7">
    <rdf:RDF>
      <cc:Work
         rdf:about="">
        <dc:format>image/svg+xml</dc:format>
        <dc:type
           rdf:resource="http://purl.org/dc/dcmitype/StillImage" />
        <dc:title></dc:title>
      </cc:Work>
    </rdf:RDF>
  </metadata>
  <g
     inkscape:label="Layer 1"
     inkscape:groupmode="layer"
     id="layer1"
     transform="translate(0,-343.70079)">
    <g
       id="g4147"
       transform="translate(177.37689,525.19659)">
      <g
         inkscape:export-ydpi="173.92"
         inkscape:export-xdpi="173.92"
         transform="matrix(0.98912392,-0.14708455,0.14708455,0.98912392,-58.754935,0.18176011)"
         id="g4250">
        <path
           inkscape:connector-curvature="0"
           style="opacity:1;fill:#ffffff;fill-opacity:1;stroke:#000000;stroke-width:20;stroke-linecap:round;stroke-linejoin:miter;stroke-miterlimit:4;stroke-dasharray:none;stroke-dashoffset:0;stroke-opacity:1"
           d="m 189.7793,-13.978516 -6.92188,0 -87.244139,0 -61.691406,61.691407 -61.691406,61.691409 0,87.24414 0,87.24414 61.691406,61.6914 61.691406,61.69141 28.785159,0 69.88672,-109.19922 -61.42774,-98.57031 44.28516,-18.57227 -58.57031,-44.28515 c 0,0 6.78404,-14.64426 17.07421,-36.63086 10.29018,-21.986609 24.08566,-51.316408 38.10352,-80.691408 5.40557,-11.3275858 10.7455,-22.3823756 16.0293,-33.304688 z"
           id="path4237" />
        <path
           inkscape:connector-curvature="0"
           style="opacity:1;fill:#ffffff;fill-opacity:1;stroke:#000000;stroke-width:20;stroke-linecap:round;stroke-linejoin:miter;stroke-miterlimit:4;stroke-dasharray:none;stroke-dashoffset:0;stroke-opacity:1"
           d="m 154.28516,60.544922 -27.80274,0 -39.863279,39.863278 -39.865235,39.86524 0,56.375 0,56.375 39.865235,39.86328 39.863279,39.86328 45.61133,0 22.19141,-34.67383 -61.42774,-98.57031 44.28516,-18.57227 -58.57031,-44.28515 c 0,0 6.78404,-14.64425 17.07421,-36.63086 5.03372,-10.755333 12.31186,-26.057112 18.63868,-39.472658 z"
           id="path4240" />
        <path
           style="fill:none;fill-rule:evenodd;stroke:#000000;stroke-width:20;stroke-linecap:butt;stroke-linejoin:miter;stroke-miterlimit:4;stroke-dasharray:none;stroke-opacity:1"
           d="M 95.612703,-13.97879 126.48171,60.545591"
           id="path4168"
           inkscape:connector-curvature="0" />
        <path
           style="fill:none;fill-rule:evenodd;stroke:#000000;stroke-width:20;stroke-linecap:butt;stroke-linejoin:miter;stroke-miterlimit:4;stroke-dasharray:none;stroke-opacity:1"
           d="M 46.754793,140.2725 -27.769588,109.40349"
           id="path4170"
           inkscape:connector-curvature="0" />
        <path
           style="fill:none;fill-rule:evenodd;stroke:#000000;stroke-width:20;stroke-linecap:butt;stroke-linejoin:miter;stroke-miterlimit:4;stroke-dasharray:none;stroke-opacity:1"
           d="m 46.754788,253.02338 -74.524386,30.86901"
           id="path4172"
           inkscape:connector-curvature="0" />
        <path
           style="fill:none;fill-rule:evenodd;stroke:#000000;stroke-width:20;stroke-linecap:butt;stroke-linejoin:miter;stroke-miterlimit:4;stroke-dasharray:none;stroke-opacity:1"
           d="M 126.48171,332.75031 95.612694,407.27469"
           id="path4174"
           inkscape:connector-curvature="0" />
      </g>
      <g
         inkscape:export-ydpi="173.92"
         inkscape:export-xdpi="173.92"
         transform="matrix(0.99999855,-0.00170244,0.00170244,0.99999855,30.564717,-20.528997)"
         id="g4242">
        <path
           inkscape:connector-curvature="0"
           style="opacity:1;fill:#ffffff;fill-opacity:1;stroke:#000000;stroke-width:20;stroke-linecap:round;stroke-linejoin:miter;stroke-miterlimit:4;stroke-dasharray:none;stroke-dashoffset:0;stroke-opacity:1"
           d="m 189.7793,-13.978516 c -5.2838,10.9223124 -10.62373,21.9771022 -16.0293,33.304688 -14.01786,29.375 -27.81334,58.704799 -38.10352,80.691408 -10.29017,21.9866 -17.07421,36.63086 -17.07421,36.63086 l 58.57031,44.28515 -44.28516,18.57227 61.42774,98.57031 -69.88672,109.19922 58.45898,0 87.24414,0 61.69141,-61.69141 61.69141,-61.6914 0,-87.24414 0,-87.24414 -61.69141,-61.691409 -61.69141,-61.691407 -80.32226,0 z"
           id="path4146-3" />
        <path
           inkscape:connector-curvature="0"
           style="opacity:1;fill:#ffffff;fill-opacity:1;stroke:#000000;stroke-width:20;stroke-linecap:round;stroke-linejoin:miter;stroke-miterlimit:4;stroke-dasharray:none;stroke-dashoffset:0;stroke-opacity:1"
           d="m 154.28516,60.544922 c -6.32682,13.415546 -13.60496,28.717325 -18.63868,39.472658 -10.29017,21.98661 -17.07421,36.63086 -17.07421,36.63086 l 58.57031,44.28515 -44.28516,18.57227 61.42774,98.57031 -22.19141,34.67383 10.76367,0 56.375,0 39.86328,-39.86328 39.86328,-39.86328 0,-56.375 0,-56.375 -39.86328,-39.86524 -39.86328,-39.863278 -56.375,0 -28.57226,0 z"
           id="path4146" />
        <path
           style="fill:none;fill-rule:evenodd;stroke:#000000;stroke-width:20;stroke-linecap:butt;stroke-linejoin:miter;stroke-miterlimit:4;stroke-dasharray:none;stroke-opacity:1"
           d="m 239.23259,332.75031 30.869,74.52439"
           id="path4176"
           inkscape:connector-curvature="0" />
        <path
           style="fill:none;fill-rule:evenodd;stroke:#000000;stroke-width:20;stroke-linecap:butt;stroke-linejoin:miter;stroke-miterlimit:4;stroke-dasharray:none;stroke-opacity:1"
           d="m 318.95951,253.02339 74.52438,30.86902"
           id="path4178"
           inkscape:connector-curvature="0" />
        <path
           style="fill:none;fill-rule:evenodd;stroke:#000000;stroke-width:20;stroke-linecap:butt;stroke-linejoin:miter;stroke-miterlimit:4;stroke-dasharray:none;stroke-opacity:1"
           d="m 318.95951,140.27252 74.52438,-30.86901"
           id="path4180"
           inkscape:connector-curvature="0" />
        <path
           style="fill:none;fill-rule:evenodd;stroke:#000000;stroke-width:20;stroke-linecap:butt;stroke-linejoin:miter;stroke-miterlimit:4;stroke-dasharray:none;stroke-opacity:1"
           d="M 270.10162,-13.978793 239.2326,60.545589"
           id="path4182"
           inkscape:connector-curvature="0" />
      </g>
    </g>
  </g>
</svg>
